<svg
  version="1.1"
  id="Layer_1"
  xmlns="http://www.w3.org/2000/svg"
  xmlns:xlink="http://www.w3.org/1999/xlink"
  x="0px"
  y="0px"
  viewBox="0 0 480.6 394.7"
  style="enable-background:new 0 0 480.6 394.7;"
  xml:space="preserve"
>
<g>
  <path
    style="fill:#BCB495;"
    d="M127.2,210.4c-0.2,0-0.4,0-0.6,0c-1.8-0.2-3.3-1.6-3.8-3.4L79.7,37.9c-0.5-2,0.4-4.1,2.1-5.1
c1.8-1,4-0.7,5.4,0.7l84.6,83.8L236.9,2.3c0.8-1.4,2.3-2.3,3.9-2.3h0c1.6,0,3.1,0.9,3.9,2.3l65.1,113.9l83.7-84.1
c1.4-1.4,3.7-1.8,5.4-0.8c1.8,1,2.7,3.1,2.2,5L360,206.2c-0.4,1.8-1.9,3.2-3.8,3.4c-1.8,0.3-3.6-0.6-4.6-2.2L307.9,131L244,195.2
c-1.8,1.8-4.6,1.8-6.4,0l-63.6-63l-42.8,75.9C130.4,209.6,128.8,210.4,127.2,210.4L127.2,210.4z M92.6,51.5l36.3,142.2l38.5-68.2
L92.6,51.5L92.6,51.5z M314.6,124.3l39.3,68.6l34.7-143L314.6,124.3L314.6,124.3z M178.6,124l62.2,61.6l62.4-62.8L240.9,13.7
L178.6,124L178.6,124z"
  ></path>
  <path
    style="fill:#BCB495;"
    d="M354.4,194.7c-2,0-3.8-1.3-4.4-3.3L318.4,75.6l-94.6,96c-1.8,1.8-4.6,1.8-6.4,0.1s-1.8-4.6,0-6.4
L317.4,63.6c1.1-1.2,2.8-1.6,4.4-1.2c1.6,0.4,2.8,1.6,3.2,3.2l33.8,123.4c0.7,2.4-0.8,4.9-3.2,5.6
C355.2,194.6,354.8,194.7,354.4,194.7L354.4,194.7z"
  ></path>
  <path
    style="fill:#BCB495;"
    d="M126.5,194.7c-0.4,0-0.8,0-1.2-0.2c-2.4-0.7-3.8-3.2-3.2-5.6l33.7-123.4c0.4-1.6,1.7-2.8,3.2-3.2
c1.6-0.4,3.2,0.1,4.4,1.2l100.1,101.6c1.8,1.8,1.7,4.7,0,6.4c-1.8,1.8-4.7,1.7-6.4-0.1l-94.6-96l-31.7,115.8
C130.3,193.3,128.5,194.7,126.5,194.7L126.5,194.7z"
  ></path>
</g>
  <!-- <g>
  <path
    style="fill:#231F20;"
    d="M105.2,264.2l-1.4,20.7c-1.5-4.4-3.5-9.5-5.4-13.2c-2.7-2.5-7.1-4.6-13.1-4.6
  c-12.7,0-19.9,11.5-19.9,28.4c0,15.1,6.1,26.2,19.9,26.2c5,0,9.2-1.5,12.5-4.5c2.6-4.1,5.1-9.1,7.1-13.5c0,5.8-0.3,13.9-0.6,19.2
  c-4.9,2.5-12.9,4.6-21.1,4.6c-19.4,0-33-12.1-33-32.1c0-18.7,12-34.3,35.3-34.3C92.4,261.2,100.1,262.6,105.2,264.2L105.2,264.2z"
  ></path>
  <path
    style="fill:#231F20;"
    d="M171.3,278.6c0,11.2-7.2,16.3-12.1,18.5c9.4,4.2,13.1,26.7,23.5,26.7c-1.8,2.4-6.2,3.6-10.2,3.6
  c-15.9,0-15.6-20.9-23.4-28.1c-1-1.1-2.4-2-3.6-2.5c6.2,0,12.1-7,12.1-17.3c0-4.8-1.3-9.3-2.7-11.9c-2.3-0.6-4.4-1-6.9-1
c-1.5,0-4.4,0.1-6.2,0.4v54.6l10.1,4.5h-31.7l7.9-3.6v-56.2l-7.5-3.4c8.5-0.5,17.4-0.8,28.5-0.8
C162.7,262.2,171.3,267.5,171.3,278.6L171.3,278.6z"
  ></path>
  <path
    style="fill:#231F20;"
    d="M254.6,293.1c0,19.5-12.3,34.4-32.8,34.4c-17.2,0-31-12.2-31-31.9s12.4-34.4,32.7-34.4
C240.6,261.2,254.6,273.6,254.6,293.1L254.6,293.1z
  M205.9,294.8c0,15.2,5.1,26.5,16.5,26.5c12.2,0,17-12.3,17-27.3
s-5-26.5-16.5-26.5S205.9,279.7,205.9,294.8L205.9,294.8z"
  ></path>
  <path
    style="fill:#231F20;"
    d="M359.9,262.6l-6.5,3.9l-23.5,62L311.5,280L293,328.5l-24.7-62.3l-6.5-3.5h30.6l-8.2,3.7l13,37
l11.3-31.1l-2.3-6.1l-6.6-3.5h29.9l-8.1,3.7l12.8,37l13-37l-8-3.7L359.9,262.6L359.9,262.6z"
  ></path>
  <path
    style="fill:#231F20;"
    d="M434,262.6l-7.4,3.9v59.7h-11.4l-32.4-49v44.9l8.4,4.1H369l7.5-4.2v-54.8l-8.7-4.6H390l30.5,47
v-43.1l-7.9-3.9L434,262.6L434,262.6z"
  ></path>
</g>
<g>
  <path
    style="fill:#231F20;"
    d="M4.2,384.2c0,0.5,0,0.8,0,1.2c0,3,1.4,5.9,6.8,5.9c4.5,0,6.7-2,6.7-4.8c0-2.3-1.3-3.5-4.3-4.4
  l-5.9-1.8c-3.8-1.2-6.8-3.4-6.8-7.8s3.7-8.2,10.4-8.2c8.7,0,10.1,4.9,10.1,8.1c0,0.5,0,1-0.1,1.5l-4,0.1c0-0.5,0-0.8,0-1.1
  c0-2.6-1-5-6.2-5c-4.3,0-6.1,1.9-6.1,4.6s1.9,3.6,4.4,4.4l5.9,1.8c4.5,1.3,6.8,3.7,6.8,7.9c0,4.6-3.6,8.3-10.9,8.3
c-9.3,0-10.9-5.3-10.9-8.9c0-0.4,0-1,0.1-1.4L4.2,384.2L4.2,384.2z"
  ></path>
  <path
    style="fill:#231F20;"
    d="M29.6,364.6h4.1v16.2c0,8.1,2.5,10.4,8.1,10.4s8.1-2.3,8.1-10.4v-16.2H54v16.5
c0,10.1-4.3,13.6-12.2,13.6s-12.2-3.5-12.2-13.6V364.6z"
  ></path>
  <path
    style="fill:#231F20;"
    d="M63.5,364.6H73c6.9,0,10.9,3.3,10.9,9c0,4.3-2.7,7.7-6.8,8.6v0.3c1.7,1.5,8,10.8,9.3,11.2v0.6h-4.7
c-1.8-0.7-7.7-10.6-9.2-11.2h-4.9v11.2h-4.1V364.6z
  M72.8,379.6c5.1,0,6.8-2.6,6.8-5.9c0-3.1-2.2-5.6-6.8-5.6h-5.2v11.5L72.8,379.6
L72.8,379.6z"
  ></path>
  <path
    style="fill:#231F20;"
    d="M89.7,364.6H94l6,17.7c0.9,2.8,1.7,5.2,2.4,8h0.4c0.7-2.9,1.4-5.3,2.3-8l6.1-17.7h4.3L105,394.3
h-4.8L89.7,364.6L89.7,364.6z"
  ></path>
  <path
    style="fill:#231F20;"
    d="M122.5,364.6H142v3.5h-15.4v9.3h13.3v3.6h-13.3v9.7H142v3.6h-19.5V364.6z"
  ></path>
  <path
    style="fill:#231F20;"
    d="M158,382.7l-10.9-17.6v-0.5h4.3l5,8c1.4,2.1,2.5,4.4,3.4,6.5h0.5c1-2,2.4-4.7,3.5-6.5l4.9-8h4.3v0.5
l-10.9,17.6v11.6H158L158,382.7L158,382.7z"
  ></path>
  <path
    style="fill:#231F20;"
    d="M197.6,378.4l-1.6-1.7c-1.7-1.7-2.6-3.7-2.6-5.6c0-4,3.4-7,8.8-7c5.1,0,8.6,2.9,8.6,7.1
  c0,4.7-5.9,7.3-7.6,8l6.4,6.4c1.3-1.7,2.7-4.3,3.8-6.4l3.5,1.9c-1.3,2.4-3.2,5.2-4.7,7.2l5.1,5.4v0.6h-4.8l-2.9-3.3
c-2.3,2.2-5.2,3.7-9.2,3.7c-5.9,0-9.8-3.4-9.8-8.3C190.7,381,195.3,379.3,197.6,378.4L197.6,378.4z
  M200.8,391.3
  c2.8,0,4.7-1.2,6.5-3l-7.4-7.6c-1.9,0.6-5.2,2.1-5.2,5.3C194.7,389.3,197.9,391.3,200.8,391.3L200.8,391.3z
  M206.9,371.5
  c0-2.2-1.8-3.9-4.7-3.9c-3.2,0-4.9,1.8-4.9,3.8c0,1.5,0.6,2.6,2.2,4.1l1.6,1.5C202.4,376.4,206.9,374.6,206.9,371.5L206.9,371.5z"
  ></path>
  <path
    style="fill:#231F20;"
    d="M234.8,364.6h4.3l6,17.7c1,2.8,1.7,5.2,2.4,8h0.4c0.7-2.9,1.4-5.3,2.3-8l6.1-17.7h4.3l-10.6,29.7
h-4.8L234.8,364.6L234.8,364.6z"
  ></path>
  <path
    style="fill:#231F20;"
    d="M273.3,364.6h4.7l10.8,29.7h-4.2l-2.8-7.6h-12.3l-2.8,7.6h-4.2L273.3,364.6z M280.9,383.3l-3.4-9.4
c-0.6-1.5-1-3-1.6-5.4h-0.3c-0.6,2.3-1,3.7-1.6,5.3l-3.4,9.5L280.9,383.3L280.9,383.3z"
  ></path>
  <path
    style="fill:#231F20;"
    d="M295.7,364.6h4.1v26.1h15v3.6h-19.2V364.6z"
  ></path>
  <path
    style="fill:#231F20;"
    d="M320.7,364.6h4.1v16.2c0,8.1,2.5,10.4,8.1,10.4s8.1-2.3,8.1-10.4v-16.2h4.1v16.5
c0,10.1-4.3,13.6-12.2,13.6s-12.2-3.5-12.2-13.6L320.7,364.6L320.7,364.6z"
  ></path>
  <path
    style="fill:#231F20;"
    d="M361.8,364.6h4.7l10.8,29.7h-4.2l-2.8-7.6H358l-2.8,7.6H351L361.8,364.6z M369.3,383.3l-3.4-9.4
c-0.6-1.5-1-3-1.6-5.4H364c-0.6,2.3-1,3.7-1.6,5.3l-3.4,9.5L369.3,383.3L369.3,383.3z"
  ></path>
  <path
    style="fill:#231F20;"
    d="M388.3,368.2h-9.6v-3.6h23.2v3.6h-9.5v26.1h-4.1V368.2z"
  ></path>
  <path
    style="fill:#231F20;"
    d="M408.6,364.6h4.1v29.7h-4.1V364.6z"
  ></path>
  <path
    style="fill:#231F20;"
    d="M421,379.5c0-9.7,4.9-15.3,13.6-15.3s13.6,5.6,13.6,15.3s-4.9,15.2-13.6,15.2S421,389.1,421,379.5z
M443.9,379.5c0-7.7-3-11.8-9.3-11.8s-9.3,4.1-9.3,11.8s3,11.7,9.3,11.7S443.9,387.1,443.9,379.5z"
  ></path>
  <path
    style="fill:#231F20;"
    d="M456.4,364.6h4l12.7,18.3c1,1.4,2.5,3.8,3.3,5.6h0.3c-0.3-2.5-0.4-5-0.4-6.5v-17.4h4.1v29.7h-4
  l-12.6-17.9c-1.4-1.9-2.4-3.7-3.5-5.9h-0.4c0.3,1.9,0.5,4.6,0.5,6.8v16.9h-4.1L456.4,364.6L456.4,364.6z"
  ></path>
</g> -->
  <line
  style="fill:none;stroke:#BCB495;stroke-width:8;stroke-linecap:round;stroke-linejoin:round;"
  x1="315"
  y1="221.2"
  x2="171.2"
  y2="221.2"
></line>
</svg>